<?xml version="1.0" encoding="UTF-8"?> <svg xmlns="http://www.w3.org/2000/svg" width="33" height="33" viewBox="0 0 33 33" fill="none"><path d="M8.88701 16.7173C8.4864 16.7173 8.15099 16.8524 7.88069 17.1227C7.6104 17.3929 7.47523 17.7284 7.47523 18.1289V24.2467C7.47523 24.6472 7.6104 24.9827 7.88069 25.2529C8.15099 25.5232 8.4864 25.6584 8.88701 25.6584C9.28761 25.6584 9.62305 25.5232 9.89331 25.2529C10.1636 24.9827 10.2987 24.6472 10.2987 24.2467V18.1289C10.2987 17.7284 10.1636 17.3929 9.89331 17.1227C9.62305 16.8524 9.28761 16.7173 8.88701 16.7173ZM23.5114 7.30542C23.1108 7.30542 22.7754 7.44055 22.5051 7.71094C22.2348 7.9812 22.0997 8.31665 22.0997 8.71716V24.2467C22.0997 24.6472 22.2348 24.9827 22.5051 25.2529C22.7754 25.5232 23.1108 25.6584 23.5114 25.6584C23.912 25.6584 24.2475 25.5232 24.5177 25.2529C24.788 24.9827 24.9232 24.6472 24.9232 24.2467V8.71716C24.9232 8.31665 24.788 7.9812 24.5177 7.71094C24.2475 7.44055 23.912 7.30542 23.5114 7.30542ZM16.1992 20.4819C15.7986 20.4819 15.4632 20.6171 15.1929 20.8875C14.9227 21.1577 14.7875 21.4932 14.7875 21.8937V24.2467C14.7875 24.6472 14.9227 24.9827 15.1929 25.2529C15.4632 25.5232 15.7986 25.6584 16.1992 25.6584C16.5998 25.6584 16.9353 25.5232 17.2055 25.2529C17.4758 24.9827 17.6109 24.6472 17.6109 24.2467V21.8937C17.6109 21.4932 17.4758 21.1577 17.2055 20.8875C16.9353 20.6171 16.5998 20.4819 16.1992 20.4819ZM3.60197 32.7173C2.65112 32.7173 1.8463 32.3878 1.18745 31.729C0.528641 31.0702 0.199219 30.2654 0.199219 29.3145V4.12C0.199219 3.16919 0.528641 2.36426 1.18745 1.70544C1.8463 1.04663 2.65112 0.717285 3.60197 0.717285H28.7965C29.7473 0.717285 30.5522 1.04663 31.211 1.70544C31.8698 2.36426 32.1992 3.16919 32.1992 4.12V29.3145C32.1992 30.2654 31.8698 31.0702 31.211 31.729C30.5522 32.3878 29.7473 32.7173 28.7965 32.7173H3.60197ZM3.60197 29.8938H28.7965C28.9413 29.8938 29.0741 29.8335 29.1947 29.7128C29.3154 29.592 29.3757 29.4594 29.3757 29.3145V4.12C29.3757 3.9751 29.3154 3.84241 29.1947 3.72168C29.0741 3.60107 28.9413 3.54077 28.7965 3.54077H3.60197C3.45715 3.54077 3.3244 3.60107 3.20369 3.72168C3.08305 3.84241 3.02271 3.9751 3.02271 4.12V29.3145C3.02271 29.4594 3.08305 29.592 3.20369 29.7128C3.3244 29.8335 3.45715 29.8938 3.60197 29.8938ZM16.1992 16.2466C16.5998 16.2466 16.9353 16.1115 17.2055 15.8412C17.4758 15.5709 17.6109 15.2355 17.6109 14.835C17.6109 14.4343 17.4758 14.0989 17.2055 13.8286C16.9353 13.5583 16.5998 13.4231 16.1992 13.4231C15.7986 13.4231 15.4632 13.5583 15.1929 13.8286C14.9227 14.0989 14.7875 14.4343 14.7875 14.835C14.7875 15.2355 14.9227 15.5709 15.1929 15.8412C15.4632 16.1115 15.7986 16.2466 16.1992 16.2466Z" fill="#006AAC"></path></svg> 