<?xml version="1.0" encoding="UTF-8"?> <svg xmlns="http://www.w3.org/2000/svg" width="33" height="33" viewBox="0 0 33 33" fill="none"><path d="M14.4369 22.2396L11.7551 19.5577C11.6298 19.4325 11.4932 19.3386 11.3453 19.276C11.1974 19.2135 11.0452 19.1821 10.8887 19.1821C10.7321 19.1821 10.5729 19.2135 10.4109 19.276C10.249 19.3386 10.1054 19.4325 9.98019 19.5577C9.71893 19.8191 9.58826 20.1193 9.58826 20.4583C9.58826 20.7972 9.71893 21.0973 9.98019 21.3585L13.3972 24.8015C13.5548 24.9591 13.7211 25.0703 13.896 25.1351C14.0709 25.1998 14.2598 25.2323 14.4628 25.2323C14.6657 25.2323 14.8547 25.1998 15.0295 25.1351C15.2045 25.0703 15.3707 24.9591 15.5283 24.8015L22.4822 17.8477C22.7327 17.5972 22.8606 17.2954 22.866 16.9424C22.8714 16.5894 22.7435 16.2822 22.4822 16.0209C22.2209 15.7596 21.9165 15.629 21.5688 15.629C21.2213 15.629 20.9168 15.7596 20.6555 16.0209L14.4369 22.2396ZM6.64417 32.7173C5.79343 32.7173 5.0733 32.4226 4.48383 31.8331C3.89435 31.2437 3.59961 30.5236 3.59961 29.6727V3.76184C3.59961 2.91113 3.89435 2.19104 4.48383 1.60156C5.0733 1.01208 5.79343 0.717285 6.64417 0.717285H18.7608C19.1667 0.717285 19.557 0.796143 19.9316 0.953735C20.3062 1.11145 20.6318 1.32837 20.9082 1.60474L27.9753 8.67188C28.2517 8.94836 28.4687 9.2738 28.6263 9.64844C28.7839 10.0231 28.8628 10.4133 28.8628 10.8192V29.6727C28.8628 30.5236 28.568 31.2437 27.9786 31.8331C27.3891 32.4226 26.6689 32.7173 25.8182 32.7173H6.64417ZM18.7576 9.30017V3.24353H6.64417C6.51462 3.24353 6.39581 3.29761 6.28784 3.40552C6.17987 3.51355 6.12592 3.63232 6.12592 3.76184V29.6727C6.12592 29.8024 6.17987 29.9211 6.28784 30.0292C6.39581 30.1371 6.51462 30.191 6.64417 30.191H25.8182C25.9478 30.191 26.0666 30.1371 26.1746 30.0292C26.2825 29.9211 26.3365 29.8024 26.3365 29.6727V10.8225H20.2798C19.8459 10.8225 19.4836 10.6774 19.1932 10.3868C18.9028 10.0964 18.7576 9.73425 18.7576 9.30017Z" fill="#006AAC"></path></svg> 