<?xml version="1.0" encoding="UTF-8"?> <svg xmlns="http://www.w3.org/2000/svg" width="24" height="24" viewBox="0 0 24 24" fill="none"><path d="M2.25828 12.195L7.50828 17.445C7.59691 17.5334 7.66693 17.6387 7.7142 17.7547C7.76148 17.8706 7.78505 17.9948 7.78354 18.12C7.78818 18.2475 7.76609 18.3745 7.71869 18.493C7.67128 18.6114 7.59961 18.7186 7.50828 18.8077C7.41991 18.8987 7.31382 18.9706 7.19656 19.019C7.0793 19.0674 6.95336 19.0912 6.82654 19.089C6.69971 19.0912 6.57377 19.0674 6.45651 19.019C6.33925 18.9706 6.23316 18.8987 6.14478 18.8077L0.331532 12.9945C0.219235 12.8869 0.131712 12.7561 0.0750357 12.6112C0.0243094 12.4718 -0.00108908 12.3246 3.68706e-05 12.1763C-0.00110521 12.0279 0.0242938 11.8806 0.0750357 11.7412C0.131712 11.5964 0.219235 11.4656 0.331532 11.358L6.14478 5.54472C6.23353 5.45226 6.33993 5.37855 6.45767 5.32792C6.57542 5.2773 6.70212 5.25082 6.83028 5.25001C6.96067 5.2478 7.09008 5.27286 7.2102 5.32362C7.33032 5.37438 7.4385 5.44968 7.52778 5.54472C7.62231 5.63343 7.69769 5.74056 7.74928 5.85948C7.80088 5.9784 7.82759 6.10659 7.82778 6.23622C7.82755 6.36584 7.80081 6.49409 7.74922 6.613C7.69763 6.73192 7.62227 6.83903 7.52778 6.92776L2.25828 12.195ZM21.741 12.1552L16.491 6.90524C16.4025 6.81677 16.3326 6.71145 16.2855 6.59552C16.2383 6.47958 16.2149 6.35537 16.2165 6.23022C16.2118 6.10278 16.2338 5.97577 16.281 5.85733C16.3283 5.73888 16.3998 5.63163 16.491 5.54248C16.5794 5.45148 16.6855 5.37959 16.8028 5.33122C16.92 5.28285 17.046 5.25901 17.1728 5.26123C17.2996 5.25901 17.4256 5.28285 17.5428 5.33122C17.6601 5.37959 17.7662 5.45148 17.8545 5.54248L23.6678 11.3558C23.7801 11.4634 23.8676 11.5941 23.9243 11.739C23.975 11.8784 24.0004 12.0257 23.9993 12.174C24.0004 12.3223 23.975 12.4696 23.9243 12.609C23.8676 12.7538 23.7801 12.8846 23.6678 12.9923L17.8545 18.8055C17.7678 18.8971 17.6631 18.9697 17.5469 19.0188C17.4307 19.0678 17.3056 19.0922 17.1795 19.0905C17.0503 19.0886 16.9228 19.0606 16.8046 19.0083C16.6864 18.956 16.58 18.8804 16.4918 18.786C16.3973 18.6973 16.3219 18.5901 16.2704 18.4712C16.2188 18.3523 16.192 18.2241 16.1918 18.0945C16.192 17.9649 16.2188 17.8367 16.2704 17.7178C16.3219 17.5988 16.3973 17.4917 16.4918 17.403L21.741 12.1552Z" fill="white"></path></svg> 