<?xml version="1.0" encoding="UTF-8"?> <svg xmlns="http://www.w3.org/2000/svg" width="32" height="33" viewBox="0 0 32 33" fill="none"><path d="M9.35378 16.7173L12.4561 13.615C12.736 13.335 12.879 13.0074 12.885 12.6321C12.8911 12.2568 12.7481 11.9233 12.4561 11.6313C12.1641 11.3394 11.8286 11.1932 11.4498 11.1932C11.0709 11.1932 10.7355 11.3394 10.4435 11.6313L6.54845 15.5264C6.37225 15.7025 6.24797 15.8883 6.1756 16.0837C6.1032 16.2793 6.06697 16.4904 6.06697 16.7173C6.06697 16.9441 6.1032 17.1553 6.1756 17.3507C6.24797 17.5461 6.37225 17.7319 6.54845 17.9082L10.4615 21.8213C10.7415 22.1013 11.0739 22.2443 11.4588 22.2502C11.8437 22.2563 12.1822 22.1133 12.4742 21.8213C12.7662 21.5293 12.9122 21.1987 12.9122 20.8295C12.9122 20.4602 12.7662 20.1296 12.4742 19.8376L9.35378 16.7173ZM22.6462 16.7173L19.5258 19.8376C19.2459 20.1176 19.1029 20.4452 19.0969 20.8204C19.0908 21.1957 19.2338 21.5293 19.5258 21.8213C19.8178 22.1133 20.1533 22.2593 20.5322 22.2593C20.911 22.2593 21.2464 22.1133 21.5385 21.8213L25.4516 17.9082C25.6277 17.7319 25.752 17.5461 25.8244 17.3507C25.8968 17.1553 25.933 16.9441 25.933 16.7173C25.933 16.4904 25.8968 16.2793 25.8244 16.0837C25.752 15.8883 25.6277 15.7025 25.4516 15.5264L21.5385 11.6132C21.3985 11.4733 21.241 11.3683 21.0661 11.2983C20.8911 11.2283 20.7161 11.1932 20.5412 11.1932C20.3662 11.1932 20.1882 11.2283 20.0073 11.2983C19.8263 11.3683 19.6658 11.4733 19.5258 11.6132C19.2338 11.9052 19.0878 12.2358 19.0878 12.605C19.0878 12.9742 19.2338 13.3048 19.5258 13.5969L22.6462 16.7173ZM3.40276 32.7173C2.4519 32.7173 1.64708 32.3878 0.988235 31.729C0.329422 31.0702 0 30.2654 0 29.3145V4.12C0 3.16919 0.329422 2.36426 0.988235 1.70544C1.64708 1.04663 2.4519 0.717285 3.40276 0.717285H28.5973C29.5481 0.717285 30.353 1.04663 31.0118 1.70544C31.6706 2.36426 32 3.16919 32 4.12V29.3145C32 30.2654 31.6706 31.0702 31.0118 31.729C30.353 32.3878 29.5481 32.7173 28.5973 32.7173H3.40276ZM3.40276 29.8938H28.5973C28.7421 29.8938 28.8748 29.8335 28.9955 29.7128C29.1162 29.592 29.1765 29.4594 29.1765 29.3145V4.12C29.1765 3.9751 29.1162 3.84241 28.9955 3.72168C28.8748 3.60107 28.7421 3.54077 28.5973 3.54077H3.40276C3.25793 3.54077 3.12518 3.60107 3.00447 3.72168C2.88383 3.84241 2.82349 3.9751 2.82349 4.12V29.3145C2.82349 29.4594 2.88383 29.592 3.00447 29.7128C3.12518 29.8335 3.25793 29.8938 3.40276 29.8938Z" fill="#006AAC"></path></svg> 