<?xml version="1.0" encoding="UTF-8"?> <svg xmlns="http://www.w3.org/2000/svg" width="33" height="33" viewBox="0 0 33 33" fill="none"><path d="M10.26 18.6639L12.7216 20.319L15.303 19.0072C15.5059 18.8885 15.7343 18.8291 15.988 18.8291C16.2417 18.8291 16.47 18.8885 16.673 19.0072L19.2705 20.319L21.6803 18.7157L19.9799 15.3246C19.9367 15.2383 19.8719 15.1681 19.7855 15.1141C19.6992 15.0601 19.6074 15.0331 19.5102 15.0331H12.3621C12.2649 15.0331 12.1758 15.0601 12.0948 15.1141C12.0139 15.1681 11.9518 15.2383 11.9086 15.3246L10.26 18.6639ZM4.58549 30.191H27.3645L22.8074 21.0023L20.1774 22.7643C19.9464 22.9219 19.6997 23.0077 19.4374 23.0217C19.175 23.0358 18.9143 22.978 18.6552 22.8485L15.996 21.5109L13.3369 22.8323C13.0778 22.9618 12.8171 23.0153 12.5548 22.9926C12.2924 22.97 12.0457 22.8798 11.8147 22.7222L9.11671 20.9602L4.58549 30.191ZM2.94996 32.7173C2.36912 32.7173 1.9308 32.4777 1.63496 31.9983C1.33915 31.5189 1.32081 31.0255 1.57993 30.5182L9.62199 14.2073C9.88111 13.6998 10.2573 13.2896 10.7507 12.9764C11.2441 12.6635 11.7813 12.5068 12.3621 12.5068H14.7329V2.23962C14.7329 1.80554 14.8782 1.44336 15.1686 1.15295C15.459 0.862549 15.8212 0.717285 16.2552 0.717285H24.2033C24.4797 0.717285 24.694 0.837158 24.8462 1.07678C24.9985 1.31653 25.0098 1.56592 24.8803 1.82507L24.0997 3.31812C24.0436 3.43689 24.0155 3.55237 24.0155 3.66467C24.0155 3.77698 24.0436 3.89246 24.0997 4.01123L24.8803 5.50439C25.0098 5.76343 24.9985 6.01282 24.8462 6.25256C24.694 6.49219 24.4797 6.61206 24.2033 6.61206H17.2592V12.5068H19.4779C20.0587 12.5068 20.5888 12.6591 21.0681 12.9635C21.5474 13.2679 21.9253 13.674 22.2017 14.1813L30.3701 30.5182C30.6292 31.0255 30.6108 31.5189 30.315 31.9983C30.0192 32.4777 29.5809 32.7173 29 32.7173H2.94996Z" fill="#006AAC"></path></svg> 