<?xml version="1.0" encoding="UTF-8"?> <svg xmlns="http://www.w3.org/2000/svg" width="24" height="24" viewBox="0 0 24 24" fill="none"><path d="M9.52522 9.64014C8.30283 9.64014 7.25638 9.2049 6.38588 8.33441C5.51539 7.46393 5.08015 6.41748 5.08015 5.19516C5.08015 3.97275 5.51539 2.9263 6.38588 2.05582C7.25638 1.18524 8.30283 0.75 9.52522 0.75C10.7476 0.75 11.794 1.18524 12.6646 2.05582C13.5351 2.9263 13.9703 3.97275 13.9703 5.19516C13.9703 6.41748 13.5351 7.46393 12.6646 8.33441C11.794 9.2049 10.7476 9.64014 9.52522 9.64014ZM9.52522 7.7352C10.2237 7.7352 10.8217 7.48645 11.3191 6.98904C11.8166 6.49155 12.0653 5.89362 12.0653 5.19516C12.0653 4.49661 11.8166 3.89868 11.3191 3.40118C10.8217 2.90378 10.2237 2.65503 9.52522 2.65503C8.82669 2.65503 8.22874 2.90378 7.7313 3.40118C7.23386 3.89868 6.98515 4.49661 6.98515 5.19516C6.98515 5.89362 7.23386 6.49155 7.7313 6.98904C8.22874 7.48645 8.82669 7.7352 9.52522 7.7352ZM22.3916 22.9656L19.3386 19.9127C18.9104 20.183 18.4586 20.3947 17.9831 20.5477C17.5077 20.7008 17.0176 20.7773 16.5129 20.7773C15.111 20.7773 13.9215 20.2879 12.9445 19.309C11.9676 18.3301 11.4792 17.1416 11.4792 15.7432C11.4792 14.3448 11.9686 13.1572 12.9475 12.1803C13.9263 11.2034 15.1149 10.7149 16.5133 10.7149C17.9116 10.7149 19.0993 11.204 20.0762 12.1824C21.0532 13.1606 21.5416 14.3485 21.5416 15.7461C21.5416 16.2524 21.4651 16.7433 21.312 17.2189C21.159 17.6943 20.9473 18.1461 20.677 18.5743L23.73 21.6273C23.9058 21.8031 23.9958 22.0241 23.9999 22.2903C24.0039 22.5566 23.914 22.7817 23.73 22.9656C23.546 23.1497 23.3229 23.2417 23.0608 23.2417C22.7986 23.2417 22.5756 23.1497 22.3916 22.9656ZM16.5104 18.8723C17.3913 18.8723 18.1325 18.5715 18.7342 17.9698C19.3358 17.3682 19.6366 16.6269 19.6366 15.7461C19.6366 14.8652 19.3358 14.1239 18.7342 13.5223C18.1325 12.9207 17.3913 12.6198 16.5104 12.6198C15.6295 12.6198 14.8883 12.9207 14.2866 13.5223C13.685 14.1239 13.3842 14.8652 13.3842 15.7461C13.3842 16.6269 13.685 17.3682 14.2866 17.9698C14.8883 18.5715 15.6295 18.8723 16.5104 18.8723ZM0 17.3824V16.5081C0 15.878 0.165688 15.2987 0.497028 14.7704C0.828392 14.2419 1.28307 13.8312 1.86107 13.5382C2.85919 13.0367 4.06206 12.5914 5.46968 12.2022C6.8773 11.813 8.41885 11.6511 10.0943 11.7163C9.90545 12.0157 9.74149 12.3243 9.60246 12.6416C9.46344 12.9589 9.35305 13.288 9.27127 13.6285C7.87911 13.6448 6.61233 13.8292 5.47092 14.1817C4.32951 14.5343 3.4242 14.8863 2.75499 15.238C2.48632 15.3683 2.27749 15.5468 2.12851 15.7738C1.97953 16.0007 1.90502 16.2454 1.90502 16.5081V17.4069H9.12472C9.19798 17.7423 9.29813 18.0708 9.42511 18.3924C9.55211 18.7139 9.70191 19.0204 9.8745 19.312H1.92943C1.39375 19.312 0.938267 19.1243 0.562981 18.7489C0.18766 18.3736 0 17.9181 0 17.3824Z" fill="white"></path></svg> 