<?xml version="1.0" encoding="UTF-8"?> <svg xmlns="http://www.w3.org/2000/svg" width="24" height="24" viewBox="0 0 24 24" fill="none"><path d="M2.59614 24C2.08333 24 1.64746 23.8205 1.28848 23.4615C0.929512 23.1026 0.75 22.6666 0.75 22.1538V17.8462C0.75 17.3334 0.929512 16.8975 1.28848 16.5385C1.64746 16.1796 2.08333 16 2.59614 16C3.10896 16 3.54488 16.1796 3.90382 16.5385C4.26276 16.8975 4.44226 17.3334 4.44226 17.8462V22.1538C4.44226 22.6666 4.26276 23.1026 3.90382 23.4615C3.54488 23.8205 3.10896 24 2.59614 24ZM12.0423 24C11.5295 24 11.0936 23.8205 10.7346 23.4615C10.3757 23.1026 10.1962 22.6666 10.1962 22.1538V9.84613C10.1962 9.33334 10.3757 8.89742 10.7346 8.53848C11.0936 8.17955 11.5295 8.00006 12.0423 8.00006C12.5551 8.00006 12.991 8.17955 13.35 8.53848C13.7089 8.89742 13.8884 9.33334 13.8884 9.84613V22.1538C13.8884 22.6666 13.7089 23.1026 13.35 23.4615C12.991 23.8205 12.5551 24 12.0423 24ZM21.3039 24C20.791 24 20.3551 23.8205 19.9962 23.4615C19.6372 23.1026 19.4577 22.6666 19.4577 22.1538V1.84607C19.4577 1.33328 19.6372 0.897446 19.9962 0.538513C20.3551 0.179489 20.791 0 21.3039 0C21.8167 0 22.2526 0.179489 22.6115 0.538513C22.9705 0.897446 23.15 1.33328 23.15 1.84607V22.1538C23.15 22.6666 22.9705 23.1026 22.6115 23.4615C22.2526 23.8205 21.8167 24 21.3039 24Z" fill="white"></path></svg> 